<?xml version="1.0" encoding="utf-8"?>
<!-- Generator: Adobe Illustrator 22.0.1, SVG Export Plug-In . SVG Version: 6.00 Build 0)  -->
<svg version="1.1" xmlns="http://www.w3.org/2000/svg" xmlns:xlink="http://www.w3.org/1999/xlink" x="0px" y="0px"
	 viewBox="0 0 97.5 80.7" style="enable-background:new 0 0 97.5 80.7;" xml:space="preserve">
<style type="text/css">
	.st0{fill:#1A1A1A;}
</style>
<g id="Слой_1">
</g>
<g id="полоски">
	<path class="st0" d="M81.8,5.9H2.6C1.2,5.9,0,4.7,0,3.3V2.6C0,1.2,1.2,0,2.6,0h79.3c1.4,0,2.6,1.2,2.6,2.6v0.6
		C84.4,4.7,83.3,5.9,81.8,5.9z"/>
	<path class="st0" d="M81.8,25.7H2.6c-1.4,0-2.6-1.2-2.6-2.6v-0.6c0-1.4,1.2-2.6,2.6-2.6h79.3c1.4,0,2.6,1.2,2.6,2.6v0.6
		C84.4,24.5,83.3,25.7,81.8,25.7z"/>
	<path class="st0" d="M46.1,46.2H2.6C1.2,46.2,0,45,0,43.6v-0.6c0-1.4,1.2-2.6,2.6-2.6h43.6c1.4,0,2.6,1.2,2.6,2.6v0.6
		C48.7,45,47.6,46.2,46.1,46.2z"/>
	<path class="st0" d="M46.1,66.6H2.6C1.2,66.6,0,65.5,0,64v-0.6c0-1.4,1.2-2.6,2.6-2.6h43.6c1.4,0,2.6,1.2,2.6,2.6V64
		C48.7,65.5,47.6,66.6,46.1,66.6z"/>
	<path class="st0" d="M94.9,59.1H51.3c-1.4,0-2.6-1.2-2.6-2.6v-0.6c0-1.4,1.2-2.6,2.6-2.6h43.6c1.4,0,2.6,1.2,2.6,2.6v0.6
		C97.5,58,96.3,59.1,94.9,59.1z"/>
	<path class="st0" d="M76,34.4V78c0,1.4-1.2,2.6-2.6,2.6h-0.6c-1.4,0-2.6-1.2-2.6-2.6V34.4c0-1.4,1.2-2.6,2.6-2.6h0.6
		C74.8,31.9,76,33,76,34.4z"/>
</g>
</svg>
