<svg xmlns="http://www.w3.org/2000/svg" viewBox="0 0 85.9 78.06"><title>lirycs</title><g id="Слой_2" data-name="Слой 2"><rect x="0.08" y="71.48" width="85.8" height="6.53" rx="3.26" ry="3.26" style="fill:#1a1a1a"/><rect x="0.08" y="4.18" width="42.9" height="6.53" rx="3.26" ry="3.26" style="fill:#1a1a1a"/><rect x="0.08" y="25.88" width="42.9" height="6.53" rx="3.26" ry="3.26" style="fill:#1a1a1a"/><rect x="0.08" y="48.68" width="85.8" height="6.53" rx="3.26" ry="3.26" style="fill:#1a1a1a"/><path d="M77.61,11c-7.15,1.59-12,2.66-12.46,2.79l-.35.07a2.48,2.48,0,0,1-1.07-.08,1.54,1.54,0,0,1-.8-.55,1.41,1.41,0,0,1-.24-.77c-.13-2.44-.2-4.87-.34-7.31a2.46,2.46,0,0,1,.31-1.51,2.14,2.14,0,0,1,.74-.71L76.05.21A1.64,1.64,0,0,1,78,1.47L78.05,10a1,1,0,0,1-.07.48A1.1,1.1,0,0,1,77.61,11Z" style="fill:#1a1a1a"/><rect x="62.75" y="3.78" width="2.65" height="34.35" rx="1.17" ry="1.17" style="fill:#1a1a1a"/><path d="M65.17,35.27c.87,2.37-.79,5.28-2.69,6.79a7.68,7.68,0,0,1-9.31.1,5.56,5.56,0,0,1-2-3.31,6.23,6.23,0,0,1,2.52-5.64C57.17,30.54,63.85,31.67,65.17,35.27Z" style="fill:#1a1a1a"/><path d="M62.44,30.19c.5-.72.28-1.45.44-1.45s1.36,2.72.23,5.2a5.49,5.49,0,0,1-1.77,2.16c-3.16,2.24-8.72.45-8.92-1.15-.13-1.05,2-2.48,3.81-3a11.8,11.8,0,0,1,1.17-.23C61.22,31,62,30.85,62.44,30.19Z" style="fill:#1a1a1a"/></g></svg>