<svg xmlns="http://www.w3.org/2000/svg" viewBox="0 0 100 100"><title>search_friends</title><g id="Слой_2" data-name="Слой 2"><path d="M50.6,53.25c-.46-.4-.94-.81-1.46-1.22-.7-.56-1.39-1.07-2-1.53a6.84,6.84,0,0,0-1.25-.77c-.9-.42-1.27-.34-2.44-.82a13.12,13.12,0,0,1-1.27-.61,16,16,0,0,1-1.68-1c-.16-.35-1.08-2.33-1.75-2.19l-.12,0c-.08-.37-.15-.78-.2-1.22a12.59,12.59,0,0,1-.05-2.18,9.91,9.91,0,0,0,.75-1.82c.47-1.66,1-2.4,1-3.72,0-.52.61-.7.83-.87.28-.51,1.92-3.59,1.08-4.31a.93.93,0,0,0-.85-.11c.91-5.39.72-7.21.22-7.62a3.79,3.79,0,0,1-.64-.64A4.75,4.75,0,0,1,40,21.32c-.6-1.19-2.36-1.55-3.68-1.82a9.51,9.51,0,0,0-2.12-.19,8.46,8.46,0,0,0-1.54.19c-1.12.26-1.62.65-4.13,1.79l-.67.3c-.94.55-2,2.41-.72,9.3a.93.93,0,0,0-.85.11c-.84.72.8,3.8,1.07,4.31.23.17.85.35.84.87,0,1.32.52,2.06,1,3.72a9.91,9.91,0,0,0,.75,1.82,12.59,12.59,0,0,1-.05,2.18,10,10,0,0,1-.21,1.22l-.11,0c-.67-.14-1.59,1.84-1.75,2.19a17.16,17.16,0,0,1-1.68,1,13.12,13.12,0,0,1-1.27.61c-1.17.48-1.54.4-2.44.82a6.52,6.52,0,0,0-1.25.77c-.66.46-1.35,1-2.05,1.53-.52.41-1,.82-1.46,1.22a2.09,2.09,0,0,0-.87,2.28,1.8,1.8,0,0,0,.79.94H50.68a1.84,1.84,0,0,0,.79-.94A2.09,2.09,0,0,0,50.6,53.25Z" style="fill:#1a1a1a"/><path d="M62.4,54.11l-1.07-.9q-.78-.62-1.5-1.11a5.16,5.16,0,0,0-.92-.57c-.66-.31-.93-.25-1.79-.6-.41-.17-.71-.33-.93-.44A11.31,11.31,0,0,1,55,49.72c-.12-.26-.79-1.71-1.28-1.6l-.09,0q-.09-.42-.15-.9a9.74,9.74,0,0,1,0-1.6A7.07,7.07,0,0,0,54,44.33a9.12,9.12,0,0,0,.74-2.73c0-.38.45-.51.61-.63.2-.38,1.4-2.64.79-3.16a.65.65,0,0,0-.62-.08c.66-3.95.52-5.29.16-5.59a2.64,2.64,0,0,1-.47-.47,3.8,3.8,0,0,1-.54-1c-.43-.88-1.73-1.14-2.69-1.34a7.55,7.55,0,0,0-1.56-.14,6,6,0,0,0-1.13.14,17.27,17.27,0,0,0-3,1.31l-.49.22c-.69.4-1.43,1.77-.53,6.82a.65.65,0,0,0-.62.08c-.62.52.58,2.78.78,3.16.16.12.62.25.62.63a8.79,8.79,0,0,0,.73,2.73,6.6,6.6,0,0,0,.55,1.33,8.83,8.83,0,0,1,0,1.6q-.06.48-.15.9l-.08,0c-.49-.11-1.17,1.34-1.29,1.6a10.41,10.41,0,0,1-1.23.77c-.22.11-.52.27-.92.44-.87.35-1.14.29-1.8.6a5.55,5.55,0,0,0-.91.57q-.73.49-1.5,1.11c-.38.31-.74.61-1.07.9a1.54,1.54,0,0,0-.64,1.67,1.3,1.3,0,0,0,.58.69H62.45a1.35,1.35,0,0,0,.59-.69A1.57,1.57,0,0,0,62.4,54.11Z" style="fill:#1a1a1a"/></g><g id="Слой_1" data-name="Слой 1"><circle cx="39.76" cy="39.23" r="30.85" transform="translate(-5.77 6.88) rotate(-9.22)" style="fill:none"/><path d="M97.8,90.23,71.64,64.07a5.74,5.74,0,0,0-.92-.74,39.25,39.25,0,1,0-8,7.73,5.18,5.18,0,0,0,.84,1.1L89.71,98.33a5.72,5.72,0,1,0,8.09-8.1Zm-58-20.14A30.86,30.86,0,1,1,70.62,39.23,30.85,30.85,0,0,1,39.76,70.09Z" style="fill:#1a1a1a"/></g></svg>