<svg xmlns="http://www.w3.org/2000/svg" viewBox="0 0 77.98 78.8"><title>zalupa</title><g id="лупа"><circle cx="30.92" cy="30.91" r="24.32" transform="matrix(0.99, -0.16, 0.16, 0.99, -4.55, 5.35)" style="fill:none"/><path d="M76.66,71.11,56,50.49a4.43,4.43,0,0,0-.72-.59A30.94,30.94,0,1,0,49,56a4.22,4.22,0,0,0,.66.88L70.28,77.49a4.51,4.51,0,0,0,6.38-6.38ZM30.92,55.23A24.32,24.32,0,1,1,55.24,30.91,24.31,24.31,0,0,1,30.92,55.23Z" style="fill:#1a1a1a"/><path d="M42.39,34.4h0c0-.1-.06-2.47-.14-7.19-.07-3.73-.11-5.6,0-7.39.19-3.76.66-6.43-.43-6.95a1.13,1.13,0,0,0-.77,0c-1.81.46-7.43,1.46-15.25,2.79a1.64,1.64,0,0,0-1.12.48,1.58,1.58,0,0,0-.41.83c0,1.41,0,3.55,0,6.17,0,6.19-.27,10.93-.3,14a3.25,3.25,0,0,1-.4.31c-1.34.87-2.41.26-3.86.62-2.32.57-4.93,3.48-4.24,6s3.67,3.87,6.69,3.05c3.27-.88,4-4.84,4.24-6a9.9,9.9,0,0,0-.12-4.39c0-2.91-.15-7.15.27-12.67L40.18,21.3c.27,4.73,0,9.6,0,12.8a3.42,3.42,0,0,1-.63.54c-1.35.87-2.42.26-3.87.62-2.32.57-4.92,3.48-4.24,6s3.68,3.87,6.7,3.06c3.26-.89,4-4.84,4.24-6A10.45,10.45,0,0,0,42.39,34.4Z" style="fill:#1a1a1a"/></g></svg>